<svg xmlns="http://www.w3.org/2000/svg" version="1.1" xmlns:xlink="http://www.w3.org/1999/xlink" xmlns:svgjs="http://svgjs.dev/svgjs" width="1000" height="1125" viewBox="0 0 1000 1125"><g transform="matrix(1,0,0,1,1.7053025658242404e-13,0)"><svg viewBox="0 0 320 360" data-background-color="#102e44" preserveAspectRatio="xMidYMid meet" height="1125" width="1000" xmlns="http://www.w3.org/2000/svg" xmlns:xlink="http://www.w3.org/1999/xlink"><g id="tight-bounds" transform="matrix(1,0,0,1,0,0)"><svg viewBox="0 0 320 360" height="360" width="320"><g><svg></svg></g><g><svg viewBox="0 0 320 360" height="360" width="320"><g><path xmlns="http://www.w3.org/2000/svg" d="M20.961 227.22l3.726 4.658-1.863-6.056c-0.466-2.795-3.726 0.466-1.863 1.398M25.153 224.425c1.397 2.329 2.795 4.658 2.795 6.987 0 3.261 2.795 4.658 5.123 5.589-3.261-3.726-5.124-13.974-7.918-12.576M204.017 26.929c7.918 0 15.371-0.932 23.756 0.931 20.495 5.124 37.729 15.371 49.374 29.811l32.606 52.169c1.397 13.042 4.192 27.482 3.726 43.319 3.261 0 2.795-4.658 6.521-5.59-3.726 9.316-5.59 20.961-6.521 34.469-2.329-7.453 0-18.632 0.466-24.687-3.261 5.124-5.124 1.397-5.124-0.932 0.466-3.726-1.397-3.261-2.795-4.658-5.124-4.658-8.384-9.782-12.11-17.7 2.329-6.055 2.795-14.905-4.658-19.563-2.329-1.397-5.124-3.726-6.521-7.453-1.863-5.124-5.124-11.179-4.193-19.097 0.466-2.329-6.987 5.124-11.179 1.863-18.166-12.576-36.332-27.016-58.224-39.127-11.645 0-20.029-4.192-24.221-9.316-3.726-4.658-0.932-10.713 4.658-11.179 3.261 0 6.987-0.932 9.782 0.932 0.466-1.863 2.329-4.192 4.657-4.192M157.904 16.215l0.932 0.466c4.658 0.932 6.987 7.453 12.11 5.124 0 3.261 0.466 6.521-0.466 8.85-1.397 3.726-5.59 3.726-8.85 3.726-31.208-1.863-49.374 11.179-68.471 22.358-5.124 3.261-10.713 5.59-14.906 9.782-20.029 18.632-41.921 35.866-47.045 70.335l-4.192 38.195c-0.466 4.192-5.124 8.384-4.192 13.508l3.26 22.824c-3.261-3.261-5.124 0.932-4.192 2.795 0.466 1.397 2.329 6.055 5.124 1.863 3.726 6.987 7.453 20.495 12.576 26.55 15.837 18.632 36.332 35.4 53.101 52.169 4.192-0.932 7.453-0.932 8.384-3.727 1.397 2.795-1.397 5.59-3.726 6.056 7.453 4.658 15.837 8.85 27.016 9.781 14.44 0.932 27.948 3.261 40.524 6.522 6.521-1.863 13.042-2.795 20.029-3.261 2.329 0 3.726-3.726 6.521-4.658l0.466-4.658c2.795 4.192 2.329-1.397 0.466-4.192 3.261 2.795 4.192 5.124 5.589 6.987 0-1.397 3.726-6.521 3.727-0.466l0.931-6.055c1.397-0.932 1.863 5.124 3.261 0.931 1.397-4.192 4.192-0.932 6.987-2.329-0.932 1.863-0.466 5.59 2.794 3.261l3.727-3.261c2.329 5.59 6.055 3.261 7.918 2.329 20.495-13.042 40.99-28.413 60.553-43.784l-0.466 6.055 2.329-7.453c2.329 2.329 4.192 0.466 5.124-0.931 2.795-4.658 6.521-9.316 12.577-13.508-7.453 20.029-16.303 35.866-27.482 48.908l-4.658 5.59c0 3.261-0.932 7.453-4.658 7.918-1.863 0.466-5.59-0.932-8.384 1.863-1.397 1.863 3.261 5.59-0.466 2.795-3.261-2.329-6.521 0-10.248 0.932-2.795 0.932 1.863 3.726 2.795 5.589 0.932 1.863 1.863 3.726 1.398 6.056l-5.124-5.59c-6.055 3.261-9.782 9.316-14.906 13.974-2.329 1.863-1.397 5.124-1.397 7.918-3.261 0-6.987-0.932-8.85 0.932-1.397 1.863-0.932 4.658-0.932 7.453-4.658-0.466-5.124-7.453-9.315-6.056-4.192 0.932-8.85 1.397-12.577 3.727 2.795 5.59-4.658 2.329-3.726 3.26-6.987-4.192-13.042-7.453-20.495-4.658-15.837-5.124-35.4-2.795-49.84-0.931 0-2.329 0.466-4.658-0.466-5.124-0.932 2.329-3.726 1.397-3.26 1.397-8.85-6.055-17.7-9.782-27.016-14.905-8.384 0.932-16.303-3.261-18.632-5.59-6.521-6.055-13.974-2.795-20.029-4.192-13.042-3.261-17.7-16.769-19.098-26.084-0.932-4.658-4.658-6.521-6.055-6.056-6.055-19.563-15.371-37.263-22.824-55.429-1.863-4.658-1.397-9.316-1.397-14.44 2.329 0.932 4.658 0.466 4.192-2.794-2.329-15.371-7.918-27.016-13.974-38.195 3.261-15.837 3.726-34.469 11.179-48.443 6.521-12.576 18.632-19.098 27.016-29.811 2.795-3.726 2.795-8.85 5.59-12.11 9.316-9.316 18.632-19.098 28.879-27.482 4.658-3.726 10.247 0 17.234-1.397 2.329-8.384 11.645-15.837 20.495-13.508 3.726 0.932 11.179-8.85 13.508-9.782 3.726-1.397 1.863 3.726 1.863 6.987 8.85-6.987 20.961-10.713 32.14-14.906" fill="#ffffff" fill-rule="nonzero" stroke="none" stroke-width="1" stroke-linecap="butt" stroke-linejoin="miter" stroke-miterlimit="10" stroke-dasharray="" stroke-dashoffset="0" font-family="none" font-weight="none" font-size="none" text-anchor="none" style="mix-blend-mode: normal" data-fill-palette-color="tertiary"></path></g><g transform="matrix(1,0,0,1,64,146.6726780883679)"><svg viewBox="0 0 192 66.65464382326421" height="66.65464382326421" width="192"><g><svg viewBox="0 0 192 66.65464382326421" height="66.65464382326421" width="192"><g><svg viewBox="0 0 192 66.65464382326421" height="66.65464382326421" width="192"><g><svg viewBox="0 0 192 66.65464382326421" height="66.65464382326421" width="192"><g id="textblocktransform"><svg viewBox="0 0 192 66.65464382326421" height="66.65464382326421" width="192" id="textblock"><g><svg viewBox="0 0 192 66.65464382326421" height="66.65464382326421" width="192"><g transform="matrix(1,0,0,1,0,0)"><svg width="192" viewBox="3.950000047683716 -36.54999923706055 110.9000015258789 38.5" height="66.65464382326421" data-palette-color="#ffffff"><g class="undefined-text-0" data-fill-palette-color="primary" id="text-0"><path d="M4-15.35Q3.95-15.7 3.95-16.5L3.95-16.5Q3.95-18.45 4.35-20.3 4.75-22.15 5.5-24.35L5.5-24.35Q6.25-26.4 8.35-28.45 10.45-30.5 13.05-31.83 15.65-33.15 17.75-33.15L17.75-33.15Q19.9-33.15 21.95-31.58 24-30 24.55-28L24.55-28Q24.65-27.4 24.65-27.2L24.65-27.2Q24.65-26.45 24.23-26.08 23.8-25.7 23.1-25.7L23.1-25.7Q22.55-25.7 22.25-25.75L22.25-25.75Q22.1-25.75 21.8-25.95L21.8-25.95Q20.35-26.75 19-26.75L19-26.75Q16.45-26.75 13.95-24.1L13.95-24.1Q9.7-19.65 9.7-13.5L9.7-13.5Q9.7-11.3 10.15-9.25L10.15-9.25Q10.65-6.95 11.93-5.88 13.2-4.8 15.35-4.8L15.35-4.8Q16.1-4.8 17-4.95L17-4.95Q20.15-5.35 22.8-6.88 25.45-8.4 28.65-10.95L28.65-10.95Q29.4-11.55 31.3-13.45L31.3-13.45 32.3-14.5Q32.95-15.15 33.43-15.43 33.9-15.7 34.3-15.7L34.3-15.7Q34.95-15.7 35.9-15.05L35.9-15.05Q36.95-14.3 36.95-13.15L36.95-13.15Q36.95-12.35 36.4-11.65L36.4-11.65Q36.2-11.3 35.3-10.03 34.4-8.75 33.55-7.75 32.7-6.75 31.85-6.05L31.85-6.05Q27.25-2 22.25-0.6L22.25-0.6Q20.05 0 17.85 0L17.85 0Q13.8 0 10.68-2.05 7.55-4.1 5.8-7.43 4.05-10.75 4-14.35L4-14.35 4-15.35ZM48.55-22.5Q48.65-22.4 48.75-22.35 48.85-22.3 48.95-22.25L48.95-22.25Q50.8-23.65 52.9-25.15L52.9-25.15 63.85-32.9Q64.4-33.3 65.5-33.3L65.5-33.3Q66.4-33.3 67.22-32.98 68.05-32.65 68.4-32.1L68.4-32.1Q68.7-31.65 68.7-31.2L68.7-31.2Q68.7-30.55 67.9-29.75L67.9-29.75 62.4-25.1 61-23.95Q58.6-22.05 57.45-21L57.45-21Q56.75-20.4 56.42-19.98 56.1-19.55 56.1-19.1L56.1-19.1Q56.1-18.5 56.95-17.1L56.95-17.1 57.85-15.7Q61.15-10.4 63.52-7 65.9-3.6 68.8-0.55L68.8-0.55 69.65 0.4Q68.8 1.1 68.15 1.1L68.15 1.1Q67.55 1.1 67 0.65L67 0.65Q63.55-1.9 60.85-4.58 58.15-7.25 56.2-10.45L56.2-10.45Q55.2-12.05 53.7-14.05L53.7-14.05Q53.6-14.25 52.4-15.95L52.4-15.95 50.95-14.75Q48.2-12.55 46.8-11.2L46.8-11.2Q46.35-10.8 46.1-10.08 45.85-9.35 45.8-8.65L45.8-8.65Q45.75-7.85 45.75-6.2L45.75-6.2 45.8-1.25Q45.8-0.1 45.57 0.68 45.35 1.45 44.55 1.95L44.55 1.95Q42.75 1.3 42.07 0.85 41.4 0.4 41.17-0.35 40.95-1.1 40.9-2.85L40.9-2.85 40.7-5.4Q40.45-7.5 40.45-9.05L40.45-9.05Q40.45-11.4 40.82-13.78 41.2-16.15 41.95-19.7L41.95-19.7Q42.95-24.75 44.25-29L44.25-29Q44.85-30.85 45.9-32.88 46.95-34.9 47.15-35.3L47.15-35.3Q47.5-35.95 47.87-36.25 48.25-36.55 48.75-36.55L48.75-36.55Q49.5-36.55 51.05-35.8L51.05-35.8Q51.8-35.45 52.07-35.15 52.35-34.85 52.35-34.4L52.35-34.4Q52.35-33.95 52.05-33.1L52.05-33.1 50.35-28.25Q50-27.15 49.2-24.95L49.2-24.95Q49-24.35 48.55-22.5L48.55-22.5ZM82.8-18.15Q82.8-18.15 83.35-16.5L83.35-16.5 84-14.6 86.75-20.1Q87.95-22.7 89.15-24.55 90.35-26.4 92.35-28.75L92.35-28.75Q92.95-29.45 93.72-29.83 94.5-30.2 95.3-30.2L95.3-30.2Q96.4-30.2 97.37-29.55 98.35-28.9 98.85-27.7L98.85-27.7Q99-27.3 99.35-26.6L99.35-26.6Q99.95-25.25 100.2-24.38 100.45-23.5 100.5-22.15L100.5-22.15Q100.55-20.15 100.9-17L100.9-17 101.15-14.1Q102.2-15 102.8-15.93 103.4-16.85 103.75-17.95L103.75-17.95Q104.45-19.8 105.3-22.5L105.3-22.5 106.8-27Q107.6-29.3 108.82-30.7 110.05-32.1 112.15-32.5L112.15-32.5Q112.55-32.6 113.05-32.6L113.05-32.6Q113.45-32.6 113.6-32.45 113.75-32.3 113.9-31.93 114.05-31.55 114.3-31.1L114.3-31.1Q114.85-30.15 114.85-29.4L114.85-29.4Q114.85-28.35 113.75-27.25L113.75-27.25Q112.1-25.65 111.22-23.75 110.35-21.85 109.25-18.65L109.25-18.65Q108.8-17.3 107.8-13.9L107.8-13.9Q106.45-9 105.55-6.8L105.55-6.8Q105-5.45 104.57-4.93 104.15-4.4 103.55-4.4L103.55-4.4Q102.9-4.4 101.35-5.25L101.35-5.25Q98.8-6.65 97.3-9.78 95.8-12.9 95.5-16.3L95.5-16.3 95.45-17.4Q95.25-20.1 95.05-22.1L95.05-22.1Q94-20.9 93.17-19.4 92.35-17.9 91.25-15.7L91.25-15.7Q90.35-13.8 90.1-13.35L90.1-13.35Q89.25-11.9 87.85-8.15L87.85-8.15Q86.5-4.65 86-3.75L86-3.75Q85.2-3.6 84.5-3.6L84.5-3.6Q83-3.6 82.1-4.5 81.2-5.4 80.6-7.4L80.6-7.4Q79.45-11.15 78.32-15.55 77.2-19.95 76.65-23.4L76.65-23.4Q76.5-24.4 76.1-25.55 75.7-26.7 75.6-27L75.6-27 75.1-28.45Q74.65-29.75 74.65-30.35L74.65-30.35Q74.65-30.9 75.02-31.35 75.4-31.8 76.3-32.45L76.3-32.45Q79.8-31.45 80.65-27.75L80.65-27.75Q81.05-26.15 81.75-22.95L81.75-22.95 82.8-18.15Z" fill="#ffffff" data-fill-palette-color="primary"></path></g></svg></g></svg></g></svg></g></svg></g></svg></g></svg></g></svg></g></svg></g><defs></defs></svg><rect width="320" height="360" fill="none" stroke="none" visibility="hidden"></rect></g></svg></g></svg>