<svg xmlns="http://www.w3.org/2000/svg" version="1.1" xmlns:xlink="http://www.w3.org/1999/xlink" xmlns:svgjs="http://svgjs.dev/svgjs" width="1000" height="1012" viewBox="0 0 1000 1012"><g transform="matrix(1,0,0,1,0.8839346564367929,0.40971659919023296)"><svg viewBox="0 0 244 247" data-background-color="#001f3f" preserveAspectRatio="xMidYMid meet" height="1012" width="1000" xmlns="http://www.w3.org/2000/svg" xmlns:xlink="http://www.w3.org/1999/xlink"><g id="tight-bounds" transform="matrix(1,0,0,1,-0.2156800561705836,-0.09999999999999432)"><svg viewBox="0 0 244.43135999999996 247.2" height="247.2" width="244.43135999999996"><g><svg></svg></g><g><svg viewBox="0 0 244.43135999999996 247.2" height="247.2" width="244.43135999999996"><g transform="matrix(1,0,0,1,0,82.90070608192772)"><svg viewBox="0 0 244.43135999999996 81.39858783614454" height="81.39858783614454" width="244.43135999999996"><g><svg viewBox="0 0 244.43135999999996 81.39858783614454" height="81.39858783614454" width="244.43135999999996"><g><svg viewBox="0 0 244.43136 81.39858783614456" height="81.39858783614454" width="244.43135999999996"><g><svg viewBox="0 0 244.43136 81.39858783614456" height="81.39858783614456" width="244.43136"><g id="textblocktransform"><svg viewBox="0 0 244.43136 81.39858783614456" height="81.39858783614456" width="244.43136" id="textblock"><g><svg viewBox="0 0 244.43136 81.39858783614456" height="81.39858783614456" width="244.43136"><g transform="matrix(1,0,0,1,0,0)"><svg width="244.43136" viewBox="2.299999952316284 -34.150001525878906 103.75 34.55000305175781" height="81.39858783614456" data-palette-color="#7e1e7e"><path d="M28.05-6.85L28.05-1.65Q24.95 0.4 19.45 0.4L19.45 0.4Q11.9 0.4 7.1-4.3 2.3-9 2.3-16.9L2.3-16.9Q2.3-24.55 7.13-29.35 11.95-34.15 19.35-34.15L19.35-34.15Q24.75-34.15 28-32.3L28-32.3 28-27.25Q25.8-28.45 24.03-28.93 22.25-29.4 19.5-29.4L19.5-29.4Q14.45-29.4 11.08-25.98 7.7-22.55 7.7-16.9L7.7-16.9Q7.7-11.15 11.05-7.75 14.4-4.35 19.9-4.35L19.9-4.35Q24.75-4.35 28.05-6.85L28.05-6.85ZM45.85-16.7L58.95 0 52.45 0 39.7-16.65 51.95-33.7 58.2-33.7 45.85-16.7ZM39.05-33.7L39.05 0 33.9 0 33.9-33.7 39.05-33.7ZM79.9-10.65L76.8 0 70.6 0 61.75-33.7 67.1-33.7 70.25-21.25 73.95-5.45Q76.2-13.85 78.35-21.25L78.35-21.25 81.8-33.2 86.35-33.2 89.9-21.2 94.45-5.35Q96.3-14.45 97.9-21.2L97.9-21.2 100.85-33.7 106.05-33.7 97.8 0 91.65 0 88.45-10.65 84.1-25.7Q82.95-20.95 79.9-10.65L79.9-10.65Z" opacity="1" transform="matrix(1,0,0,1,0,0)" fill="#7e1e7e" class="undefined-text-0" data-fill-palette-color="primary" id="text-0"></path></svg></g></svg></g></svg></g></svg></g><g></g></svg></g></svg></g></svg></g><path d="M0 76.901L0 1 244.431 1 244.431 76.901 237.091 76.901 237.091 8.341 7.341 8.341 7.341 76.901 0 76.901M0 170.299L0 246.2 244.431 246.2 244.431 170.299 237.091 170.299 237.091 238.859 7.341 238.859 7.341 170.299 0 170.299" fill="#7e1e7e" stroke="transparent" data-fill-palette-color="primary"></path></svg></g><defs></defs></svg><rect width="244.43135999999996" height="247.2" fill="none" stroke="none" visibility="hidden"></rect></g></svg></g></svg>